<svg width="18" height="34" viewBox="0 0 18 34" fill="none" xmlns="http://www.w3.org/2000/svg">
<path d="M14.0664 33.4823L9.68769 30.9026V17.2815C9.68769 16.7917 9.29056 16.3945 8.80071 16.3945C8.31085 16.3945 7.91372 16.7917 7.91372 17.2815V30.9026L3.53501 33.4823C3.40867 33.5568 3.46145 33.7505 3.6081 33.7505H13.9932C14.14 33.7505 14.1927 33.5568 14.0664 33.4823Z" fill="white"/>
<path d="M15.1148 0.446289H2.48733C2.48733 0.446289 -0.462555 7.73358 0.917382 12.3912C2.06668 16.2702 5.48404 17.9318 7.42107 18.5779C8.31678 18.8767 9.28524 18.8767 10.1808 18.5779C12.1179 17.9318 15.5352 16.2702 16.6845 12.3912C18.0648 7.73358 15.1148 0.446289 15.1148 0.446289Z" fill="white"/>
<path d="M0.608008 8.18164C0.486377 9.64626 0.539847 11.1172 0.917362 12.3913C2.06666 16.2703 5.48403 17.9318 7.42106 18.578C8.31677 18.8768 9.28511 18.8768 10.1808 18.578C12.1178 17.9318 15.5352 16.2703 16.6845 12.3913C17.062 11.1172 17.1155 9.64626 16.9939 8.18164H0.608008Z" fill="#6A42DB"/>
</svg>
