<svg width="36" height="37" viewBox="0 0 36 37" fill="none" xmlns="http://www.w3.org/2000/svg">
<path d="M24.2625 20.0002H7.5C7.075 20.0002 6.71875 19.8564 6.43125 19.5689C6.14375 19.2814 6 18.9252 6 18.5002C6 18.0752 6.14375 17.7189 6.43125 17.4314C6.71875 17.1439 7.075 17.0002 7.5 17.0002H24.2625L16.9125 9.65016C16.6125 9.35016 16.4687 9.00016 16.4812 8.60016C16.4937 8.20016 16.65 7.85016 16.95 7.55016C17.25 7.27516 17.6 7.13141 18 7.11891C18.4 7.10641 18.75 7.25016 19.05 7.55016L28.95 17.4502C29.1 17.6002 29.2062 17.7627 29.2687 17.9377C29.3312 18.1127 29.3625 18.3002 29.3625 18.5002C29.3625 18.7002 29.3312 18.8877 29.2687 19.0627C29.2062 19.2377 29.1 19.4002 28.95 19.5502L19.05 29.4502C18.775 29.7252 18.4312 29.8627 18.0187 29.8627C17.6062 29.8627 17.25 29.7252 16.95 29.4502C16.65 29.1502 16.5 28.7939 16.5 28.3814C16.5 27.9689 16.65 27.6127 16.95 27.3127L24.2625 20.0002Z" fill="#CFDBEA"/>
</svg>
