<svg width="20" height="20" viewBox="0 0 20 20" fill="none" xmlns="http://www.w3.org/2000/svg">
<path d="M9.16651 15.0001C10.7776 15.0001 12.1526 14.4341 13.2915 13.3022C14.4304 12.1702 14.9998 10.7917 14.9998 9.16675C14.9998 7.55564 14.4304 6.18064 13.2915 5.04175C12.1526 3.90286 10.7776 3.33341 9.16651 3.33341C7.5415 3.33341 6.16303 3.90286 5.03109 5.04175C3.89914 6.18064 3.33317 7.55564 3.33317 9.16675C3.33317 10.7917 3.89914 12.1702 5.03109 13.3022C6.16303 14.4341 7.5415 15.0001 9.16651 15.0001ZM9.16651 16.6667C8.12484 16.6667 7.14914 16.4688 6.23942 16.073C5.3297 15.6772 4.53803 15.1424 3.86442 14.4688C3.19081 13.7952 2.65609 13.0036 2.26025 12.0938C1.86442 11.1841 1.6665 10.2084 1.6665 9.16675C1.6665 8.13897 1.86442 7.17022 2.26025 6.2605C2.65609 5.35078 3.19081 4.55564 3.86442 3.87508C4.53803 3.19453 5.3297 2.65633 6.23942 2.2605C7.14914 1.86466 8.12484 1.66675 9.16651 1.66675C10.1943 1.66675 11.163 1.86466 12.0728 2.2605C12.9825 2.65633 13.7776 3.19453 14.4582 3.87508C15.1387 4.55564 15.6769 5.35078 16.0728 6.2605C16.4686 7.17022 16.6665 8.13897 16.6665 9.16675C16.6665 10.0556 16.5207 10.8959 16.229 11.6876C15.9373 12.4792 15.5346 13.2015 15.0207 13.8542L17.7498 16.5834C17.9165 16.7501 17.9964 16.9445 17.9894 17.1667C17.9825 17.389 17.8957 17.5834 17.729 17.7501C17.5623 17.9029 17.3679 17.9792 17.1457 17.9792C16.9235 17.9792 16.729 17.9029 16.5623 17.7501L13.8332 15.0417C13.1804 15.5556 12.4582 15.9549 11.6665 16.2397C10.8748 16.5244 10.0415 16.6667 9.16651 16.6667Z" fill="#9FACBD"/>
</svg>
