<svg width="30" height="30" viewBox="0 0 30 30" fill="none" xmlns="http://www.w3.org/2000/svg">
<path d="M15 18.6875C14.8333 18.6875 14.6771 18.6615 14.5312 18.6094C14.3854 18.5573 14.25 18.4688 14.125 18.3438L8.375 12.5938C8.14583 12.3646 8.03125 12.0729 8.03125 11.7188C8.03125 11.3646 8.14583 11.0729 8.375 10.8438C8.60417 10.6146 8.89583 10.5 9.25 10.5C9.60417 10.5 9.89583 10.6146 10.125 10.8438L15 15.7188L19.875 10.8437C20.1042 10.6146 20.3958 10.5 20.75 10.5C21.1042 10.5 21.3958 10.6146 21.625 10.8437C21.8542 11.0729 21.9688 11.3646 21.9688 11.7187C21.9688 12.0729 21.8542 12.3646 21.625 12.5937L15.875 18.3438C15.75 18.4688 15.6146 18.5573 15.4688 18.6094C15.3229 18.6615 15.1667 18.6875 15 18.6875Z" fill="#CFDBEA"/>
</svg>
