<svg width="30" height="30" viewBox="0 0 30 30" fill="none" xmlns="http://www.w3.org/2000/svg">
<path d="M15.0005 11.3115C15.1672 11.3115 15.3234 11.3376 15.4692 11.3896C15.6151 11.4417 15.7505 11.5303 15.8755 11.6553L21.6255 17.4053C21.8547 17.6344 21.9692 17.9261 21.9692 18.2803C21.9692 18.6344 21.8547 18.9261 21.6255 19.1553C21.3963 19.3844 21.1047 19.499 20.7505 19.499C20.3963 19.499 20.1047 19.3844 19.8755 19.1553L15.0005 14.2803L10.1255 19.1553C9.89632 19.3844 9.60466 19.499 9.25049 19.499C8.89632 19.499 8.60466 19.3844 8.37549 19.1553C8.14632 18.9261 8.03174 18.6344 8.03174 18.2803C8.03174 17.9261 8.14632 17.6344 8.37549 17.4053L14.1255 11.6553C14.2505 11.5303 14.3859 11.4417 14.5317 11.3896C14.6776 11.3376 14.8338 11.3115 15.0005 11.3115Z" fill="#CFDBEA"/>
</svg>
